<?xml version="1.0" encoding="UTF-8"?>
<svg width="32px" height="41px" viewBox="0 0 32 41" version="1.1" xmlns="http://www.w3.org/2000/svg" xmlns:xlink="http://www.w3.org/1999/xlink">
    <!-- Generator: Sketch 43.1 (39012) - http://www.bohemiancoding.com/sketch -->
    <title>ferry_icon</title>
    <desc>Created with Sketch.</desc>
    <defs></defs>
    <g id="Page-1" stroke="none" stroke-width="1" fill="none" fill-rule="evenodd">
        <g id="ferry_icon" transform="translate(0.000000, 2.000000)">
            <path d="M3,15.0694518 C3,-5.06488948 29,-4.9813683 29,15.0694518 C29,21.607811 16.0006095,35.9643375 16.0006095,35.9643375 C16.0006095,35.9643375 3,21.1653991 3,15.0694518 Z" id="Path-2" stroke="#FB7066" stroke-width="4" fill="#FFFFFF"></path>
            <path d="M4.13078114,17.8809185 L0,12.19097 L4.13078114,12.19097 L6.6686467,8.90389415 C6.6686467,8.90389415 6.78339063,8.80939916 7.0196281,8.6406581 C7.26261523,8.47191704 7.7215909,8.44491847 7.7215909,8.44491847 L11.0086668,8.44491847 L11.0086668,7.29072963 L12.5003377,7.29072963 L13.3372934,5.33333333 L14.4172362,5.33333333 L13.985259,6.42002576 L14.5994765,7.29072963 L18.534518,7.29072963 L18.534518,8.44491847 L24.9466783,8.44491847 C24.9466783,8.44491847 25.5136482,8.44491847 25.8713793,8.74865238 C26.3573536,9.15363093 26.4181003,9.47761376 26.4181003,9.47761376 L27.4575452,12.19097 L29.7591733,12.19097 L31.9393078,17.8809185 C31.9393078,17.8809185 29.4149416,16.3285008 25.3786554,16.5309901 C22.0915796,16.7267297 20.8091475,17.85392 17.063096,17.85392 C15.0179543,17.85392 11.967116,16.8279743 9.61824043,16.7874765 C7.89033196,16.7604779 5.07573108,17.4961889 4.13078114,17.8809185 L4.13078114,17.8809185 Z M5.93293566,20.4727812 C7.3098627,20.1352991 9.19301296,19.5683291 12.5003377,20.2635423 C14.1337512,20.6010244 15.6794193,20.9655051 17.1980888,21.006003 C19.175734,21.0127526 20.2691761,20.6685209 21.8013449,20.2905409 C23.178272,19.9328099 24.7846868,19.6358256 25.9996225,19.6493249 C28.1190102,19.6830731 29.7389244,20.0205552 30.6366268,20.4187841 L29.9886612,18.6638771 C28.2337541,18.0699085 25.2436626,17.7256768 21.8013449,18.7111245 C20.3501718,19.1566009 18.8517512,19.4468356 17.3195824,19.4265867 C15.9359057,19.3995881 14.6062262,19.1903492 13.2427984,18.8933649 C8.88252936,17.8809185 7.22886703,18.5693821 5.0149843,19.1566009 L5.93293566,20.4727812 Z M5.8924378,12.19097 L9.93547363,12.19097 L9.93547363,9.72735053 L8.3560573,9.72735053 C8.3560573,9.72735053 8.03207443,9.76784838 7.6608441,10.0040859 C7.4381059,10.1390787 6.9926295,10.7465465 6.9926295,10.7465465 L5.8924378,12.19097 Z M16.2666382,12.19097 L20.4649157,12.19097 L20.4649157,9.72735053 L16.2666382,9.72735053 L16.2666382,12.19097 L16.2666382,12.19097 Z M25.196415,10.3280687 C25.196415,10.3280687 25.0884208,10.058083 24.91293,9.9298398 C24.6766926,9.76784838 24.460704,9.72735053 24.460704,9.72735053 L21.5313592,9.72735053 L21.5313592,12.19097 L25.9051275,12.19097 L25.196415,10.3280687 Z M11.0086668,12.19097 L15.2339429,12.19097 L15.2204436,9.72735053 L11.0086668,9.72735053 L11.0086668,12.19097 Z" id="Shape" fill="#000000" fill-rule="nonzero"></path>
        </g>
    </g>
</svg>