<?xml version="1.0" encoding="UTF-8"?>
<svg width="33px" height="43px" viewBox="0 0 33 43" version="1.1" xmlns="http://www.w3.org/2000/svg" xmlns:xlink="http://www.w3.org/1999/xlink">
    <!-- Generator: Sketch 43.1 (39012) - http://www.bohemiancoding.com/sketch -->
    <title>Bouquet_of_3_Roses</title>
    <desc>Created with Sketch.</desc>
    <defs></defs>
    <g id="Page-1" stroke="none" stroke-width="1" fill="none" fill-rule="evenodd">
        <g id="Bouquet_of_3_Roses" transform="translate(0.000000, 2.000000)">
            <path d="M3.84,15.553687 C3.84,-5.22764246 30.6754728,-5.14143744 30.6754728,15.553687 C30.6754728,22.3021471 17.2583655,37.12 17.2583655,37.12 C17.2583655,37.12 3.84,21.8455189 3.84,15.553687 Z" id="Path-2" stroke="#FB7066" stroke-width="4" fill="#FFFFFF"></path>
            <path d="M13.4296489,21.1334591 C11.3855324,23.5612028 7.1991232,27.3752084 0.877983634,32.5678833 L0.440459194,31.848554 C3.36720195,29.5181613 6.01482576,27.2777673 8.36826581,25.127297 C10.4351145,23.2390502 11.8833761,21.7479199 12.7281453,20.6464339 L13.4296489,21.1334591 L13.4296489,21.1334591 Z" id="Shape" fill="#417505"></path>
            <path d="M13.9200202,22.3174865 C10.0578943,26.768355 7.24437762,30.5747531 5.47929008,33.7368759 L4.70232746,33.4221656 C6.44478779,30.3499664 9.27344429,26.5060414 13.188312,21.8753405 L13.9200202,22.3174865 L13.9200202,22.3174865 Z" id="Shape" fill="#417505"></path>
            <path d="M12.1473552,20.7139254 C10.7217209,22.2200154 8.87368689,23.7410802 6.60319327,25.26222 C4.24973822,26.8282391 2.13016271,27.9221927 0.259411494,28.5516133 L0.0633290016,27.7648375 C1.75295749,27.2178982 3.78209918,26.1613815 6.14302662,24.5803276 C8.42109765,23.0442281 10.1936726,21.57565 11.4458516,20.1893732 L12.1473552,20.7139254 Z" id="Shape" fill="#417505"></path>
            <path d="M12.8564362,10.5758094 C12.8564362,10.7182047 12.8412964,10.8530827 12.8111818,10.9654835 C11.9134907,8.93484138 10.1484031,7.91576159 7.50835675,7.91576159 C6.49004221,7.91576159 5.68296499,8.02814741 5.07945766,8.24550668 C7.13871395,11.4075394 8.96421074,12.9885933 10.5406882,12.9885933 C11.3477654,12.9885933 11.7476128,12.6588482 11.732458,11.9995231 C11.4835437,11.6772954 10.3219635,10.8830023 8.26269216,9.6092163 C9.54498583,9.62416106 11.0687215,10.3060684 12.833809,11.6472858 L12.833809,11.7372095 C12.833809,12.3816649 12.5999445,12.8986847 12.1397928,13.2882688 C11.6721388,13.6704106 11.1139909,13.8652777 10.4501643,13.8652777 C8.94905591,13.8652777 7.41027049,12.8537303 5.84884286,10.8380329 C5.47172767,10.298536 5.08702007,9.75161168 4.70232746,9.21211474 C4.23468843,8.59765391 3.75189456,8.14054823 3.26911569,7.8483151 C5.12471208,7.30881816 6.52024684,7.03907719 7.46310233,7.03907719 C8.99431033,7.03907719 10.2465044,7.33129532 11.2195645,7.91576159 C12.3133381,8.57517675 12.8564362,9.45937855 12.8564362,10.5758094 L12.8564362,10.5758094 Z" id="Shape" fill="#417505"></path>
            <path d="M19.7508185,15.6260889 C19.4716995,15.955849 19.0116379,16.7050828 18.3628611,17.8590405 C17.8575451,18.7282075 17.352124,19.335136 16.8316531,19.6873732 C16.1451993,20.1668661 15.3683117,20.4067025 14.5158901,20.4067025 C13.5127154,20.4067025 12.7433302,19.9945511 12.1926547,19.1553037 C11.7098608,18.4359744 11.4685089,17.55929 11.4685089,16.5252505 C11.4685089,15.8059212 11.657119,15.0641148 12.0418116,14.3073486 C12.1700124,14.9667638 12.6075519,15.4987433 13.3467475,15.9108797 C13.9954192,16.2705443 14.681873,16.457819 15.4210686,16.457819 C16.4997773,16.457819 17.8575451,16.0307078 19.5094815,15.184033 L19.7508185,15.6260889 L19.7508185,15.6260889 Z" id="Shape" fill="#E7005F"></path>
            <path d="M19.0040305,14.3298258 C19.0040305,14.8393131 18.6269003,15.2439471 17.8725649,15.5361652 C17.2841973,15.7535245 16.6882674,15.8659253 16.0848501,15.8659253 C14.7723518,15.8659253 14.1161027,15.4013023 14.1161027,14.4796485 C14.1161027,13.8652777 14.440491,13.5580098 15.0891628,13.5580098 C15.4889202,13.5580098 15.8434982,13.7978462 16.1527467,14.2848714 C15.9113948,14.2249574 15.7152073,14.1949478 15.5568018,14.1949478 C15.1721092,14.1949478 14.9760117,14.3298258 14.9760117,14.5920493 C14.9760117,14.8842825 15.3757691,15.0266779 16.175374,15.0266779 C17.427553,15.0266779 18.0535975,14.7793991 18.0535975,14.2848714 C18.0535975,13.7827964 17.7744786,13.3557003 17.2238931,12.9885933 C16.6656402,12.6214113 16.1376819,12.441579 15.6172111,12.441579 C14.1915617,12.441579 13.4598535,13.04099 13.4296489,14.2399021 C13.15062,13.8277658 13.0148417,13.4905783 13.0148417,13.2283397 C13.0148417,12.7487569 13.2788208,12.3516553 13.8068691,12.0519048 C14.3348274,11.7522443 14.9458221,11.6023315 15.6398383,11.6023315 C16.4092385,11.6023315 17.1408567,11.8720725 17.8499376,12.3966247 C18.6193379,12.9661162 19.0040305,13.6104965 19.0040305,14.3298258 L19.0040305,14.3298258 Z" id="Shape" fill="#E7005F"></path>
            <path d="M27.8370456,24.7976269 C27.3995211,24.4454797 26.8035912,24.1607789 26.0493308,23.9434197 C25.400569,23.7635873 24.7518973,23.5912724 24.1032256,23.4189725 C21.0256397,22.4523644 19.4868543,21.0286507 19.4868543,19.1553637 C19.4868543,18.1438163 19.9771206,17.4919185 20.9652305,17.1847256 C22.8510315,18.3836377 24.0201891,19.5599976 24.4577136,20.7139554 C23.8995507,20.2643671 23.3488752,19.8147788 22.7981997,19.372723 C22.0966961,18.8181762 21.4932788,18.4585116 20.9878577,18.3011564 C20.5956777,18.4360344 20.3920178,18.7507447 20.3920178,19.2452873 C20.3920178,20.8263412 22.4437117,22.1450965 26.5396121,23.1941709 L26.8262184,23.2616174 C26.8262184,22.3399636 26.5772891,21.3583208 26.0946002,20.3093215 C25.6118064,19.2603371 25.0158764,18.4585116 24.3143729,17.9040549 C23.6128543,17.3496132 22.7228306,17.0273705 21.6290571,16.9374618 C21.9382906,16.7351524 22.3229832,16.6302689 22.7831499,16.6302689 C23.869346,16.6302689 24.8499836,17.1248115 25.71738,18.1063794 C26.4717154,18.9380944 26.9997637,19.9346971 27.3089973,21.0885648 C27.5428618,21.9652642 27.7239095,23.2016132 27.8370456,24.7976269 L27.8370456,24.7976269 Z" id="Shape" fill="#417505"></path>
            <path d="M21.0331271,7.65352302 C21.0331271,8.71003973 20.7993376,9.58672413 20.3241362,10.2911086 C19.7658833,11.1228387 18.9889957,11.5424174 17.9857459,11.5424174 C17.7896484,11.5424174 17.6086157,11.5274577 17.4350704,11.4974631 C16.1980312,11.2876212 15.2325485,10.6732504 14.5385173,9.65417063 C13.9351,8.68756257 13.3316827,7.71343711 12.7281753,6.73188429 L12.9922445,6.31230557 C14.6668082,7.16651281 16.0320483,7.58609153 17.0805674,7.58609153 C17.7971358,7.58609153 18.491152,7.40625921 19.1548885,7.03907719 C19.8941741,6.62701587 20.3241362,6.09494629 20.4598994,5.43562117 C20.8446071,6.19990475 21.0331271,6.93419376 21.0331271,7.65352302 L21.0331271,7.65352302 Z" id="Shape" fill="#FF9299"></path>
            <path d="M26.781009,16.2555545 L26.4491332,16.6302539 C25.3101052,16.3979499 24.186202,16.1731482 23.0698012,15.9483616 C21.8855938,15.6710882 20.9804303,14.9817685 20.3468084,13.8653227 C20.0827392,13.4006997 19.9545384,12.9212068 19.9545384,12.441624 C19.9545384,11.3851073 20.4599445,10.5233826 21.478274,9.84900772 C22.3758601,9.26454145 23.3791248,8.97232332 24.4803858,8.97232332 C24.7142503,8.97232332 24.9027704,8.97984072 25.0310613,8.99480049 C24.2993531,9.44437377 23.9297103,10.3136308 23.9297103,11.5798994 C23.9297103,12.9886383 24.8801432,14.54714 26.781009,16.2555545 L26.781009,16.2555545 Z" id="Shape" fill="#DD4C88"></path>
            <path d="M19.5093915,4.25165383 C19.5093915,4.54388697 19.350986,4.91860139 19.0416624,5.36817467 C19.0416624,4.18422234 18.3175167,3.5923287 16.8541903,3.5923287 C16.2356182,3.5923287 15.6774703,3.77216102 15.1796266,4.13926801 C14.6742055,4.50645004 14.4252762,4.93356116 14.4252762,5.413144 C14.4252762,5.90015421 15.0664755,6.13990062 16.3487692,6.13990062 C17.1333093,6.13990062 17.5180169,5.99007787 17.5180169,5.69784474 C17.5180169,5.45058093 17.3218293,5.32322034 16.9220719,5.32322034 C16.7636664,5.32322034 16.5600065,5.35313988 16.326142,5.413144 C16.6505304,4.94850592 17.0125958,4.70875951 17.4123532,4.70875951 C18.0611149,4.70875951 18.3854133,5.01595242 18.3854133,5.61545348 C18.3854133,6.53709221 17.7291642,6.99410786 16.4166659,6.99410786 C15.8132485,6.99410786 15.2173036,6.88172204 14.6289511,6.64197563 C13.8595509,6.3497425 13.4748583,5.95264094 13.4748583,5.43562117 C13.4748583,4.74619644 13.8369237,4.12430825 14.5610545,3.56985154 C15.2777129,3.0153048 16.0471131,2.73812147 16.8541903,2.73812147 C17.4048658,2.73812147 17.9403865,2.84300489 18.4684348,3.06779153 C19.1623759,3.36002467 19.5093915,3.75712622 19.5093915,4.25165383 Z" id="Shape" fill="#FF9299"></path>
            <path d="M29.0137206,12.4865333 C29.0137206,13.1684256 28.8251255,13.8352832 28.4554827,14.4796485 C28.0783525,15.184033 27.6333406,15.5361652 27.135497,15.5361652 C26.5621943,15.5361652 26.0040314,15.1315463 25.4759831,14.3298258 C25.0007666,13.580487 24.7669021,12.8986847 24.7669021,12.2842238 C24.7669021,11.3925797 25.1365449,10.9430064 25.8757405,10.9430064 C26.5093624,10.9430064 26.8261734,11.2577017 26.8261734,11.8871223 C26.8261734,12.2092599 26.7130223,12.5239702 26.4942976,12.8312382 C26.4037888,12.1493458 26.2076913,11.804641 25.8983677,11.804641 C25.6872204,11.804641 25.5891341,11.9320766 25.5891341,12.1943152 C25.5891341,12.5914167 25.7324748,13.078517 26.0266586,13.6479335 C26.3509569,14.2923888 26.6903951,14.6145265 27.0449731,14.6145265 C27.3391569,14.6145265 27.603136,14.3598203 27.8370005,13.8428006 C28.0481478,13.3781775 28.1462341,12.9285892 28.1462341,12.5014931 C28.1462341,11.902082 27.9727788,11.3701025 27.6182008,10.8905197 C27.2636978,10.4184542 26.856378,10.1787078 26.3811616,10.1787078 C26.071928,10.1787078 25.8078589,10.2161447 25.5891341,10.2911086 C26.0115188,9.69912496 26.4113662,9.40689182 26.780919,9.40689182 C27.2787626,9.40689182 27.7766063,9.74407928 28.27445,10.4109368 C28.7648062,11.0778694 29.0137206,11.7672041 29.0137206,12.4865333 L29.0137206,12.4865333 Z" id="Shape" fill="#DD4C88"></path>
            <path d="M31.2690894,1.86143706 C30.8089377,2.19862453 30.3715033,2.69316714 29.9641685,3.35249227 C29.6397951,3.92199877 29.3079193,4.49149027 28.9684812,5.06090674 C27.4975774,7.34634512 25.9512145,8.48525309 24.3521099,8.48525309 C22.8736287,8.48525309 22.1192933,7.81841057 22.0740389,6.46966072 C23.7259754,4.97851548 25.1742519,4.16174518 26.426431,4.03438459 C24.9555272,4.98603288 23.8768934,5.88519445 23.1980171,6.73188429 C23.2432715,7.31633555 23.6128243,7.60856869 24.3068555,7.60856869 C25.8682681,7.60856869 27.5955736,5.87767705 29.4964394,2.40837637 C29.0740548,2.30350795 28.6214656,2.25102123 28.1462491,2.25102123 C24.8800682,2.25102123 22.8359517,3.43497355 22.0287845,5.7877684 C21.9684652,5.63041325 21.9382606,5.44304853 21.9382606,5.24073906 C21.9382606,3.99696266 22.5870224,3.0153048 23.8843808,2.29597555 C24.9631046,1.69656452 26.1775017,1.39681399 27.527692,1.39681399 C28.4554977,1.39681399 29.7076767,1.55416914 31.2690894,1.86143706 L31.2690894,1.86143706 Z" id="Shape" fill="#417505"></path>
        </g>
    </g>
</svg>